<svg width="366" height="166" viewBox="0 0 366 166" fill="none" xmlns="http://www.w3.org/2000/svg">
<g clip-path="url(#clip0_631_1286)">
<path d="M8.77979 158H23.0198L158.78 157.99V8H8.77979V158Z" fill="#EAE8E7"/>
<path fill-rule="evenodd" clip-rule="evenodd" d="M66.7798 8H158.78V100H166.78V0H66.7798V8Z" fill="#222120"/>
<path fill-rule="evenodd" clip-rule="evenodd" d="M23.0198 157.99H8.77979V66H0.779785V166H100.78V157.99H23.0198Z" fill="#222120"/>
<path d="M28.7798 55H73.8798V62.71H55.8398V110.04H46.8198V62.71H28.7798V55Z" fill="#222120"/>
<path d="M79.8599 55H113.67V62.71H88.8799V77.97H111.82V85.68H88.8799V102.33H114.98V110.04H79.8599V55Z" fill="#222120"/>
<path d="M119.87 55H128.89V110.04H119.87V55Z" fill="#222120"/>
<path d="M202.41 110.969V137.659H198.93V110.969H202.41Z" fill="#222120"/>
<path d="M217.81 116.289C220.36 116.289 222.43 117.069 224.01 118.629C225.59 120.159 226.38 122.379 226.38 125.289V137.659H222.93V125.789C222.93 123.699 222.41 122.099 221.36 120.999C220.31 119.879 218.88 119.319 217.07 119.319C215.26 119.319 213.76 119.889 212.67 121.039C211.6 122.189 211.06 123.859 211.06 126.059V137.659H207.57V116.679H211.06V119.669C211.75 118.599 212.68 117.769 213.85 117.179C215.05 116.589 216.36 116.299 217.79 116.299L217.81 116.289Z" fill="#222120"/>
<path d="M233.11 113.26C232.45 113.26 231.89 113.03 231.43 112.57C230.97 112.11 230.74 111.55 230.74 110.89C230.74 110.23 230.97 109.67 231.43 109.21C231.89 108.75 232.45 108.52 233.11 108.52C233.77 108.52 234.28 108.75 234.72 109.21C235.18 109.67 235.41 110.23 235.41 110.89C235.41 111.55 235.18 112.12 234.72 112.57C234.29 113.03 233.75 113.26 233.11 113.26ZM234.8 116.669V137.65H231.31V116.669H234.8Z" fill="#222120"/>
<path d="M244.22 119.541V131.911C244.22 132.931 244.44 133.661 244.87 134.091C245.3 134.501 246.06 134.701 247.13 134.701H249.7V137.651H246.56C244.62 137.651 243.17 137.201 242.2 136.311C241.23 135.421 240.74 133.951 240.74 131.911V119.541H238.02V116.671H240.74V111.391H244.22V116.671H249.7V119.541H244.22Z" fill="#222120"/>
<path d="M254.95 113.26C254.29 113.26 253.72 113.03 253.26 112.57C252.8 112.11 252.57 111.55 252.57 110.89C252.57 110.23 252.8 109.67 253.26 109.21C253.72 108.75 254.28 108.52 254.95 108.52C255.62 108.52 256.12 108.75 256.56 109.21C257.02 109.67 257.25 110.23 257.25 110.89C257.25 111.55 257.02 112.12 256.56 112.57C256.13 113.03 255.59 113.26 254.95 113.26ZM256.63 116.669V137.65H253.15V116.669H256.63Z" fill="#222120"/>
<path d="M260.5 127.088C260.5 124.948 260.93 123.068 261.8 121.458C262.67 119.828 263.85 118.558 265.36 117.668C266.89 116.778 268.59 116.328 270.45 116.328C272.31 116.328 273.88 116.718 275.24 117.518C276.59 118.308 277.6 119.308 278.26 120.508V116.678H281.78V137.658H278.26V133.748C277.57 134.978 276.54 135.998 275.16 136.808C273.81 137.598 272.22 137.998 270.41 137.998C268.6 137.998 266.86 137.538 265.36 136.618C263.85 135.698 262.67 134.408 261.8 132.748C260.93 131.088 260.5 129.198 260.5 127.078V127.088ZM278.27 127.128C278.27 125.548 277.95 124.168 277.31 122.988C276.67 121.818 275.8 120.918 274.71 120.308C273.64 119.668 272.45 119.348 271.15 119.348C269.85 119.348 268.66 119.658 267.59 120.268C266.52 120.878 265.66 121.778 265.02 122.948C264.38 124.118 264.06 125.498 264.06 127.088C264.06 128.678 264.38 130.098 265.02 131.298C265.66 132.468 266.51 133.378 267.59 134.018C268.66 134.628 269.85 134.938 271.15 134.938C272.45 134.938 273.64 134.628 274.71 134.018C275.81 133.378 276.67 132.478 277.31 131.298C277.95 130.098 278.27 128.708 278.27 127.128Z" fill="#222120"/>
<path d="M291.17 119.541V131.911C291.17 132.931 291.39 133.661 291.82 134.091C292.25 134.501 293.01 134.701 294.08 134.701H296.65V137.651H293.51C291.57 137.651 290.12 137.201 289.15 136.311C288.18 135.421 287.7 133.951 287.7 131.911V119.541H284.98V116.671H287.7V111.391H291.18V116.671H296.66V119.541H291.18H291.17Z" fill="#222120"/>
<path d="M301.9 113.26C301.24 113.26 300.68 113.03 300.22 112.57C299.76 112.11 299.53 111.55 299.53 110.89C299.53 110.23 299.76 109.67 300.22 109.21C300.68 108.75 301.24 108.52 301.9 108.52C302.56 108.52 303.07 108.75 303.51 109.21C303.97 109.67 304.2 110.23 304.2 110.89C304.2 111.55 303.97 112.12 303.51 112.57C303.08 113.03 302.54 113.26 301.9 113.26ZM303.58 116.669V137.65H300.1V116.669H303.58Z" fill="#222120"/>
<path d="M316.57 134.442L323.08 116.672H326.79L318.56 137.652H314.5L306.27 116.672H310.02L316.57 134.442Z" fill="#222120"/>
<path d="M348.6 126.36C348.6 127.02 348.56 127.73 348.48 128.47H331.71C331.84 130.54 332.54 132.16 333.82 133.33C335.12 134.48 336.69 135.05 338.53 135.05C340.04 135.05 341.29 134.71 342.28 134.02C343.3 133.3 344.02 132.36 344.42 131.19H348.17C347.61 133.21 346.49 134.85 344.8 136.13C343.12 137.38 341.02 138.01 338.52 138.01C336.53 138.01 334.74 137.56 333.16 136.67C331.6 135.78 330.38 134.51 329.48 132.88C328.59 131.22 328.14 129.31 328.14 127.14C328.14 124.97 328.57 123.07 329.44 121.43C330.31 119.8 331.52 118.55 333.08 117.68C334.66 116.79 336.48 116.34 338.52 116.34C340.56 116.34 342.27 116.77 343.81 117.64C345.34 118.51 346.51 119.71 347.33 121.24C348.17 122.75 348.59 124.46 348.59 126.37L348.6 126.36ZM345 125.63C345 124.3 344.71 123.17 344.12 122.22C343.53 121.25 342.73 120.52 341.71 120.04C340.71 119.53 339.6 119.27 338.38 119.27C336.62 119.27 335.11 119.83 333.86 120.95C332.63 122.07 331.93 123.63 331.75 125.62H345V125.63Z" fill="#222120"/>
<path d="M202.41 72.3214V81.2414H212.14V84.1114H202.41V93.3014H213.29V96.1714H198.93V69.4414H213.29V72.3114H202.41V72.3214Z" fill="#222120"/>
<path d="M228.01 74.8086C230.56 74.8086 232.63 75.5886 234.21 77.1486C235.79 78.6786 236.58 80.8986 236.58 83.8086V96.1786H233.13V84.3086C233.13 82.2186 232.61 80.6186 231.56 79.5186C230.51 78.3986 229.08 77.8386 227.27 77.8386C225.46 77.8386 223.96 78.4086 222.87 79.5586C221.8 80.7086 221.26 82.3786 221.26 84.5786V96.1786H217.78V75.1986H221.26V78.1886C221.95 77.1186 222.88 76.2886 224.05 75.6986C225.25 75.1086 226.56 74.8186 227.99 74.8186L228.01 74.8086Z" fill="#222120"/>
<path d="M240.22 85.6399C240.22 83.4699 240.65 81.5798 241.52 79.9698C242.39 78.3398 243.59 77.0698 245.12 76.1798C246.68 75.2898 248.45 74.8398 250.44 74.8398C253.02 74.8398 255.14 75.4698 256.8 76.7198C258.48 77.9698 259.6 79.7098 260.13 81.9298H256.38C256.02 80.6498 255.32 79.6498 254.27 78.8998C253.25 78.1598 251.97 77.7899 250.44 77.7899C248.45 77.7899 246.84 78.4798 245.62 79.8598C244.39 81.2098 243.78 83.1399 243.78 85.6399C243.78 88.1399 244.39 90.1198 245.62 91.4998C246.84 92.8798 248.45 93.5699 250.44 93.5699C251.97 93.5699 253.25 93.2098 254.27 92.4998C255.29 91.7898 255.99 90.7598 256.38 89.4398H260.13C259.57 91.5798 258.45 93.3098 256.76 94.6098C255.08 95.8898 252.97 96.5199 250.44 96.5199C248.45 96.5199 246.67 96.0698 245.12 95.1798C243.59 94.2898 242.39 93.0199 241.52 91.3899C240.65 89.7599 240.22 87.8398 240.22 85.6498V85.6399Z" fill="#222120"/>
<path d="M273.16 96.5216C271.19 96.5216 269.41 96.0715 267.8 95.1815C266.22 94.2915 264.97 93.0216 264.05 91.3916C263.16 89.7316 262.71 87.8216 262.71 85.6516C262.71 83.4816 263.17 81.6216 264.09 79.9816C265.03 78.3216 266.31 77.0616 267.92 76.1916C269.53 75.3016 271.33 74.8516 273.32 74.8516C275.31 74.8516 277.11 75.3016 278.72 76.1916C280.33 77.0616 281.59 78.3116 282.51 79.9416C283.45 81.5716 283.93 83.4816 283.93 85.6516C283.93 87.8216 283.44 89.7316 282.47 91.3916C281.53 93.0216 280.24 94.2915 278.6 95.1815C276.97 96.0715 275.15 96.5216 273.16 96.5216ZM273.16 93.4615C274.41 93.4615 275.59 93.1715 276.68 92.5815C277.78 91.9915 278.66 91.1116 279.32 89.9416C280.01 88.7716 280.35 87.3416 280.35 85.6516C280.35 83.9616 280.02 82.5415 279.35 81.3615C278.69 80.1915 277.82 79.3216 276.75 78.7616C275.68 78.1716 274.52 77.8816 273.27 77.8816C272.02 77.8816 270.82 78.1716 269.75 78.7616C268.7 79.3216 267.86 80.1915 267.22 81.3615C266.58 82.5315 266.26 83.9616 266.26 85.6516C266.26 87.3416 266.57 88.8016 267.18 89.9816C267.82 91.1516 268.66 92.0416 269.71 92.6216C270.76 93.1816 271.9 93.4615 273.16 93.4615Z" fill="#222120"/>
<path d="M286.44 85.5999C286.44 83.4599 286.87 81.5798 287.74 79.9698C288.61 78.3398 289.79 77.0698 291.3 76.1798C292.83 75.2898 294.54 74.8398 296.43 74.8398C298.06 74.8398 299.58 75.2198 300.99 75.9898C302.39 76.7298 303.47 77.7098 304.21 78.9398V67.8398H307.73V96.1798H304.21V92.2398C303.52 93.4898 302.5 94.5199 301.15 95.3399C299.8 96.1299 298.22 96.5299 296.4 96.5299C294.58 96.5299 292.84 96.0699 291.31 95.1499C289.8 94.2299 288.62 92.9398 287.75 91.2798C286.88 89.6198 286.45 87.7298 286.45 85.6098L286.44 85.5999ZM304.21 85.6399C304.21 84.0599 303.89 82.6798 303.25 81.4998C302.61 80.3298 301.74 79.4299 300.65 78.8199C299.58 78.1799 298.39 77.8598 297.09 77.8598C295.79 77.8598 294.6 78.1698 293.53 78.7798C292.46 79.3898 291.6 80.2898 290.96 81.4598C290.32 82.6298 290 84.0099 290 85.5999C290 87.1899 290.32 88.6098 290.96 89.8098C291.6 90.9798 292.45 91.8898 293.53 92.5298C294.6 93.1398 295.79 93.4499 297.09 93.4499C298.39 93.4499 299.58 93.1398 300.65 92.5298C301.75 91.8898 302.61 90.9898 303.25 89.8098C303.89 88.6098 304.21 87.2199 304.21 85.6399Z" fill="#222120"/>
<path d="M314.65 71.7791C313.99 71.7791 313.43 71.5491 312.97 71.0891C312.51 70.6291 312.28 70.0691 312.28 69.4091C312.28 68.7491 312.51 68.1791 312.97 67.7291C313.43 67.2691 313.99 67.0391 314.65 67.0391C315.31 67.0391 315.82 67.2691 316.26 67.7291C316.72 68.1891 316.95 68.7491 316.95 69.4091C316.95 70.0691 316.72 70.6391 316.26 71.0891C315.83 71.5491 315.29 71.7791 314.65 71.7791ZM316.33 75.1891V96.169H312.85V75.1891H316.33Z" fill="#222120"/>
<path d="M331.73 74.8086C334.28 74.8086 336.35 75.5886 337.93 77.1486C339.51 78.6786 340.3 80.8986 340.3 83.8086V96.1786H336.85V84.3086C336.85 82.2186 336.33 80.6186 335.28 79.5186C334.23 78.3986 332.8 77.8386 330.99 77.8386C329.18 77.8386 327.68 78.4086 326.59 79.5586C325.52 80.7086 324.98 82.3786 324.98 84.5786V96.1786H321.5V75.1986H324.98V78.1886C325.67 77.1186 326.6 76.2886 327.78 75.6986C328.98 75.1086 330.29 74.8186 331.72 74.8186L331.73 74.8086Z" fill="#222120"/>
<path d="M353.89 74.8398C355.7 74.8398 357.28 75.2398 358.64 76.0298C360.02 76.8198 361.04 77.8198 361.7 79.0198V75.1898H365.22V96.6299C365.22 98.5399 364.81 100.24 364 101.72C363.18 103.23 362.01 104.4 360.48 105.24C358.97 106.08 357.21 106.5 355.2 106.5C352.44 106.5 350.15 105.85 348.31 104.55C346.47 103.25 345.39 101.47 345.06 99.2298H348.51C348.89 100.51 349.68 101.53 350.88 102.29C352.08 103.08 353.52 103.48 355.21 103.48C357.12 103.48 358.68 102.88 359.88 101.68C361.11 100.48 361.72 98.7999 361.72 96.6299V92.2299C361.03 93.4599 360.01 94.4798 358.66 95.2898C357.31 96.1098 355.72 96.5199 353.91 96.5199C352.1 96.5199 350.35 96.0599 348.82 95.1399C347.31 94.2199 346.13 92.9298 345.26 91.2698C344.39 89.6098 343.96 87.7199 343.96 85.5999C343.96 83.4799 344.39 81.5798 345.26 79.9698C346.13 78.3398 347.31 77.0698 348.82 76.1798C350.35 75.2898 352.05 74.8398 353.91 74.8398H353.89ZM361.7 85.6399C361.7 84.0599 361.38 82.6798 360.74 81.4998C360.1 80.3298 359.23 79.4299 358.14 78.8199C357.07 78.1799 355.88 77.8598 354.58 77.8598C353.28 77.8598 352.09 78.1698 351.02 78.7798C349.95 79.3898 349.09 80.2898 348.45 81.4598C347.81 82.6298 347.49 84.0099 347.49 85.5999C347.49 87.1899 347.81 88.6098 348.45 89.8098C349.09 90.9798 349.94 91.8898 351.02 92.5298C352.09 93.1398 353.28 93.4499 354.58 93.4499C355.88 93.4499 357.07 93.1398 358.14 92.5298C359.24 91.8898 360.11 90.9898 360.74 89.8098C361.38 88.6098 361.7 87.2199 361.7 85.6399Z" fill="#222120"/>
<path d="M216.26 28V30.83H208.98V54.69H205.5V30.83H198.19V28H216.26Z" fill="#222120"/>
<path d="M236.81 43.3911C236.81 44.0511 236.77 44.7611 236.69 45.5011H219.92C220.05 47.5711 220.75 49.1911 222.03 50.3611C223.33 51.5111 224.9 52.0811 226.74 52.0811C228.25 52.0811 229.5 51.7411 230.49 51.0511C231.51 50.3411 232.23 49.3911 232.63 48.2211H236.38C235.82 50.2411 234.7 51.8811 233.01 53.1611C231.33 54.4111 229.23 55.0411 226.73 55.0411C224.74 55.0411 222.95 54.5911 221.37 53.7011C219.81 52.8111 218.59 51.5411 217.69 49.9111C216.8 48.2511 216.35 46.3411 216.35 44.1711C216.35 42.0011 216.78 40.1011 217.65 38.4611C218.52 36.8311 219.73 35.5811 221.29 34.7111C222.87 33.8211 224.68 33.3711 226.73 33.3711C228.78 33.3711 230.48 33.8011 232.01 34.6711C233.54 35.5411 234.72 36.7411 235.53 38.2711C236.37 39.7811 236.79 41.4911 236.79 43.4011L236.81 43.3911ZM233.21 42.6611C233.21 41.3311 232.92 40.2011 232.33 39.2511C231.74 38.2811 230.94 37.5511 229.92 37.0711C228.93 36.5611 227.81 36.3011 226.59 36.3011C224.83 36.3011 223.32 36.8611 222.07 37.9811C220.84 39.1011 220.14 40.6611 219.96 42.6511H233.21V42.6611Z" fill="#222120"/>
<path d="M251.59 54.6892L246.61 46.8792L241.82 54.6892H238.18L244.96 44.2692L238.18 33.6992H242.12L247.1 41.4692L251.85 33.6992H255.49L248.75 44.0792L255.53 54.6892H251.59Z" fill="#222120"/>
<path d="M264.57 36.5797V48.9497C264.57 49.9697 264.79 50.6997 265.22 51.1297C265.65 51.5397 266.41 51.7397 267.48 51.7397H270.05V54.6897H266.91C264.97 54.6897 263.51 54.2397 262.55 53.3497C261.58 52.4597 261.09 50.9897 261.09 48.9497V36.5797H258.37V33.7097H261.09V28.4297H264.57V33.7097H270.05V36.5797H264.57Z" fill="#222120"/>
</g>
<defs>
<clipPath id="clip0_631_1286">
<rect width="366" height="166" fill="white"/>
</clipPath>
</defs>
</svg>
