<svg width="156" height="156" viewBox="0 0 156 156" fill="none" xmlns="http://www.w3.org/2000/svg">
<g clip-path="url(#clip0_631_1240)">
<path d="M7.65039 148.358H21.0104L148.37 148.348V7.64844H7.6604V148.368L7.65039 148.358Z" fill="#EAE8E7"/>
<path fill-rule="evenodd" clip-rule="evenodd" d="M62.0508 7.63892H148.351V93.9389H155.861V0.128906H62.0508V7.63892Z" fill="#222120"/>
<path fill-rule="evenodd" clip-rule="evenodd" d="M21.0009 148.349H7.64087V62.0586H0.130859V155.869H93.9409V148.349H20.9908H21.0009Z" fill="#222120"/>
<path d="M26.4004 51.7305H68.7104V58.9604H51.7904V103.36H43.3304V58.9604H26.4104V51.7305H26.4004Z" fill="#222120"/>
<path d="M74.3303 51.7288H106.05V58.9587H82.7903V73.2787H104.31V80.5088H82.7903V96.1288H107.27V103.359H74.3203V51.7188L74.3303 51.7288Z" fill="#222120"/>
<path d="M111.852 51.7305H120.312V103.37H111.852V51.7305Z" fill="#222120"/>
</g>
<defs>
<clipPath id="clip0_631_1240">
<rect width="156" height="156" fill="white"/>
</clipPath>
</defs>
</svg>
