<svg width="372" height="234" viewBox="0 0 372 234" fill="none" xmlns="http://www.w3.org/2000/svg">
<g clip-path="url(#clip0_631_1571)">
<path d="M115.93 149.089H129.29L256.65 149.079V8.37891H115.94V149.099L115.93 149.089Z" fill="#222120"/>
<path fill-rule="evenodd" clip-rule="evenodd" d="M170.34 8.37915H256.64V94.6791H264.15V0.869141H170.34V8.37915Z" fill="#F7A823"/>
<path fill-rule="evenodd" clip-rule="evenodd" d="M129.29 149.079H115.93V62.7891H108.43V156.599H202.24V149.079H129.29Z" fill="#F7A823"/>
<path d="M134.689 52.4688H176.999V59.6988H160.079V104.099H151.619V59.6988H134.699V52.4688H134.689Z" fill="white"/>
<path d="M182.61 52.469H214.33V59.699H191.07V74.019H212.59V81.249H191.07V96.869H215.55V104.099H182.6V52.459L182.61 52.469Z" fill="white"/>
<path d="M220.14 52.4688H228.6V104.109H220.14V52.4688Z" fill="white"/>
<path d="M16.5699 200.039V202.569H10.0699V223.889H6.9599V202.569H0.419922V200.039H16.5699Z" fill="#222120"/>
<path d="M34.9304 213.79C34.9304 214.38 34.9004 215.01 34.8304 215.67H19.8404C19.9504 217.52 20.5804 218.97 21.7204 220.02C22.8804 221.05 24.2904 221.56 25.9304 221.56C27.2804 221.56 28.3904 221.25 29.2804 220.64C30.1904 220 30.8304 219.16 31.2004 218.11H34.5504C34.0504 219.91 33.0404 221.38 31.5404 222.52C30.0304 223.64 28.1604 224.2 25.9304 224.2C24.1504 224.2 22.5504 223.8 21.1404 223C19.7504 222.2 18.6504 221.07 17.8504 219.61C17.0504 218.13 16.6504 216.42 16.6504 214.48C16.6504 212.54 17.0404 210.84 17.8104 209.38C18.5904 207.92 19.6704 206.8 21.0604 206.03C22.4704 205.23 24.0904 204.83 25.9204 204.83C27.7504 204.83 29.2704 205.22 30.6404 205.99C32.0104 206.77 33.0604 207.84 33.7904 209.21C34.5404 210.56 34.9204 212.09 34.9204 213.8L34.9304 213.79ZM31.7104 213.14C31.7104 211.95 31.4504 210.94 30.9204 210.09C30.4004 209.22 29.6804 208.57 28.7604 208.14C27.8704 207.68 26.8804 207.46 25.7804 207.46C24.2104 207.46 22.8604 207.96 21.7404 208.97C20.6404 209.97 20.0204 211.36 19.8604 213.14H31.7004H31.7104Z" fill="#222120"/>
<path d="M48.1499 223.891L43.6999 216.911L39.4199 223.891H36.1699L42.2299 214.581L36.1699 205.131H39.6899L44.1399 212.081L48.3799 205.131H51.6299L45.6099 214.401L51.6699 223.881H48.1499V223.891Z" fill="#222120"/>
<path d="M59.7502 207.7V218.75C59.7502 219.66 59.9402 220.31 60.3302 220.7C60.7202 221.07 61.3902 221.25 62.3502 221.25H64.6402V223.89H61.8302C60.1002 223.89 58.8002 223.49 57.9302 222.69C57.0602 221.89 56.6302 220.58 56.6302 218.75V207.7H54.2002V205.13H56.6302V200.41H59.7402V205.13H64.6302V207.7H59.7402H59.7502Z" fill="#222120"/>
<path d="M79.2897 202.57V210.54H87.9797V213.11H79.2897V221.32H89.0097V223.89H76.1797V200H89.0097V202.57H79.2897Z" fill="#222120"/>
<path d="M102.17 204.789C104.45 204.789 106.3 205.479 107.71 206.879C109.12 208.249 109.83 210.229 109.83 212.839V223.889H106.75V213.279C106.75 211.409 106.28 209.979 105.35 208.999C104.41 207.999 103.14 207.489 101.52 207.489C99.9003 207.489 98.5703 207.999 97.5803 209.029C96.6203 210.059 96.1403 211.549 96.1403 213.509V223.879H93.0303V205.129H96.1403V207.799C96.7603 206.839 97.5903 206.099 98.6403 205.579C99.7103 205.049 100.89 204.789 102.16 204.789H102.17Z" fill="#222120"/>
<path d="M113.07 214.48C113.07 212.54 113.46 210.85 114.23 209.42C115.01 207.96 116.08 206.83 117.45 206.03C118.84 205.23 120.43 204.83 122.21 204.83C124.51 204.83 126.41 205.39 127.89 206.51C129.39 207.63 130.39 209.18 130.87 211.16H127.52C127.2 210.02 126.57 209.12 125.64 208.46C124.73 207.8 123.59 207.47 122.22 207.47C120.44 207.47 119 208.09 117.91 209.32C116.82 210.53 116.27 212.25 116.27 214.49C116.27 216.73 116.82 218.49 117.91 219.73C119.01 220.96 120.44 221.58 122.22 221.58C123.59 221.58 124.73 221.26 125.64 220.62C126.55 219.98 127.18 219.07 127.52 217.88H130.87C130.37 219.8 129.36 221.34 127.86 222.5C126.36 223.64 124.47 224.21 122.21 224.21C120.43 224.21 118.85 223.81 117.45 223.01C116.08 222.21 115.01 221.08 114.23 219.62C113.45 218.16 113.07 216.45 113.07 214.49V214.48Z" fill="#222120"/>
<path d="M142.52 224.2C140.76 224.2 139.17 223.8 137.73 223C136.31 222.2 135.2 221.07 134.38 219.61C133.58 218.13 133.18 216.42 133.18 214.48C133.18 212.54 133.59 210.88 134.41 209.42C135.25 207.94 136.4 206.81 137.83 206.03C139.27 205.23 140.88 204.83 142.66 204.83C144.44 204.83 146.05 205.23 147.48 206.03C148.92 206.8 150.05 207.92 150.87 209.38C151.71 210.84 152.14 212.54 152.14 214.48C152.14 216.42 151.71 218.13 150.84 219.61C149.99 221.07 148.84 222.2 147.38 223C145.92 223.8 144.3 224.2 142.52 224.2ZM142.52 221.46C143.64 221.46 144.69 221.2 145.67 220.67C146.65 220.15 147.44 219.36 148.03 218.31C148.65 217.26 148.95 215.98 148.95 214.48C148.95 212.98 148.65 211.7 148.06 210.65C147.47 209.6 146.69 208.83 145.73 208.32C144.77 207.8 143.73 207.53 142.62 207.53C141.51 207.53 140.43 207.79 139.47 208.32C138.54 208.82 137.78 209.6 137.21 210.65C136.64 211.7 136.36 212.98 136.36 214.48C136.36 215.98 136.63 217.3 137.18 218.35C137.75 219.4 138.5 220.19 139.44 220.71C140.37 221.21 141.4 221.46 142.52 221.46Z" fill="#222120"/>
<path d="M154.38 214.441C154.38 212.521 154.77 210.851 155.54 209.411C156.32 207.951 157.38 206.821 158.72 206.021C160.09 205.221 161.62 204.821 163.3 204.821C164.76 204.821 166.12 205.161 167.37 205.851C168.63 206.511 169.58 207.391 170.24 208.491V198.561H173.39V223.881H170.24V220.351C169.62 221.471 168.71 222.391 167.5 223.121C166.29 223.831 164.88 224.181 163.26 224.181C161.64 224.181 160.08 223.771 158.71 222.951C157.36 222.131 156.3 220.981 155.53 219.491C154.75 218.011 154.37 216.321 154.37 214.421L154.38 214.441ZM170.26 214.471C170.26 213.061 169.97 211.821 169.4 210.771C168.83 209.721 168.05 208.921 167.07 208.381C166.11 207.811 165.05 207.521 163.89 207.521C162.73 207.521 161.67 207.791 160.71 208.341C159.75 208.891 158.99 209.691 158.42 210.741C157.85 211.791 157.56 213.021 157.56 214.441C157.56 215.861 157.84 217.131 158.42 218.201C158.99 219.251 159.75 220.061 160.71 220.631C161.67 221.181 162.73 221.451 163.89 221.451C165.05 221.451 166.12 221.181 167.07 220.631C168.05 220.061 168.83 219.251 169.4 218.201C169.97 217.131 170.26 215.881 170.26 214.471Z" fill="#222120"/>
<path d="M179.599 202.09C179.009 202.09 178.499 201.89 178.099 201.47C177.689 201.06 177.479 200.56 177.479 199.96C177.479 199.36 177.689 198.86 178.099 198.45C178.509 198.04 179.009 197.83 179.599 197.83C180.189 197.83 180.649 198.04 181.039 198.45C181.449 198.86 181.659 199.36 181.659 199.96C181.659 200.56 181.449 201.06 181.039 201.47C180.649 201.88 180.169 202.09 179.599 202.09ZM181.109 205.14V223.89H177.999V205.14H181.109Z" fill="#222120"/>
<path d="M194.859 204.789C197.139 204.789 198.99 205.479 200.4 206.879C201.82 208.249 202.52 210.229 202.52 212.839V223.889H199.439V213.279C199.439 211.409 198.969 209.979 198.039 208.999C197.109 207.999 195.829 207.489 194.209 207.489C192.589 207.489 191.259 207.999 190.279 209.029C189.319 210.059 188.839 211.549 188.839 213.509V223.879H185.729V205.129H188.839V207.799C189.459 206.839 190.289 206.099 191.339 205.579C192.409 205.049 193.589 204.789 194.859 204.789Z" fill="#222120"/>
<path d="M214.66 204.83C216.28 204.83 217.69 205.18 218.9 205.89C220.13 206.6 221.05 207.49 221.64 208.56V205.14H224.79V224.3C224.79 226.01 224.43 227.53 223.69 228.85C222.96 230.2 221.91 231.25 220.54 232C219.19 232.75 217.62 233.13 215.82 233.13C213.36 233.13 211.3 232.55 209.66 231.39C208.02 230.23 207.05 228.64 206.75 226.63H209.83C210.17 227.77 210.88 228.68 211.95 229.37C213.02 230.08 214.31 230.43 215.82 230.43C217.53 230.43 218.92 229.89 219.99 228.82C221.09 227.75 221.63 226.24 221.63 224.3V220.36C221.01 221.46 220.1 222.37 218.89 223.1C217.68 223.83 216.27 224.2 214.65 224.2C213.03 224.2 211.47 223.79 210.1 222.97C208.75 222.15 207.69 221 206.92 219.51C206.14 218.03 205.76 216.34 205.76 214.44C205.76 212.54 206.15 210.85 206.92 209.41C207.69 207.95 208.76 206.82 210.1 206.02C211.47 205.22 212.99 204.82 214.65 204.82L214.66 204.83ZM221.64 214.48C221.64 213.07 221.35 211.83 220.78 210.78C220.21 209.73 219.43 208.93 218.45 208.39C217.49 207.82 216.43 207.53 215.27 207.53C214.11 207.53 213.05 207.8 212.09 208.35C211.13 208.9 210.37 209.7 209.8 210.75C209.23 211.8 208.95 213.03 208.95 214.45C208.95 215.87 209.24 217.14 209.8 218.21C210.37 219.26 211.14 220.07 212.09 220.64C213.05 221.19 214.11 221.46 215.27 221.46C216.43 221.46 217.49 221.19 218.45 220.64C219.43 220.07 220.21 219.26 220.78 218.21C221.35 217.14 221.64 215.89 221.64 214.48Z" fill="#222120"/>
<path d="M240.93 200.039V223.889H237.82V200.039H240.93Z" fill="#222120"/>
<path d="M254.69 204.789C256.97 204.789 258.82 205.479 260.23 206.879C261.64 208.249 262.35 210.229 262.35 212.839V223.889H259.27V213.279C259.27 211.409 258.8 209.979 257.87 208.999C256.93 207.999 255.66 207.489 254.04 207.489C252.42 207.489 251.08 207.999 250.1 209.029C249.14 210.059 248.66 211.549 248.66 213.509V223.879H245.55V205.129H248.66V207.799C249.28 206.839 250.11 206.099 251.16 205.579C252.23 205.049 253.41 204.789 254.69 204.789Z" fill="#222120"/>
<path d="M268.359 202.09C267.769 202.09 267.259 201.89 266.849 201.47C266.439 201.06 266.229 200.56 266.229 199.96C266.229 199.36 266.429 198.86 266.849 198.45C267.259 198.04 267.759 197.83 268.359 197.83C268.959 197.83 269.409 198.04 269.799 198.45C270.209 198.86 270.419 199.36 270.419 199.96C270.419 200.56 270.219 201.06 269.799 201.47C269.409 201.88 268.929 202.09 268.359 202.09ZM269.87 205.14V223.89H266.76V205.14H269.87Z" fill="#222120"/>
<path d="M278.29 207.7V218.75C278.29 219.66 278.48 220.31 278.87 220.7C279.26 221.07 279.93 221.25 280.89 221.25H283.18V223.89H280.37C278.64 223.89 277.33 223.49 276.47 222.69C275.6 221.89 275.17 220.58 275.17 218.75V207.7H272.74V205.13H275.17V200.41H278.28V205.13H283.17V207.7H278.28H278.29Z" fill="#222120"/>
<path d="M287.88 202.09C287.29 202.09 286.78 201.89 286.37 201.47C285.96 201.06 285.75 200.56 285.75 199.96C285.75 199.36 285.96 198.86 286.37 198.45C286.78 198.04 287.28 197.83 287.88 197.83C288.48 197.83 288.93 198.04 289.32 198.45C289.73 198.86 289.93 199.36 289.93 199.96C289.93 200.56 289.73 201.06 289.32 201.47C288.93 201.88 288.45 202.09 287.88 202.09ZM289.39 205.14V223.89H286.28V205.14H289.39Z" fill="#222120"/>
<path d="M292.85 214.44C292.85 212.52 293.24 210.85 294.01 209.41C294.79 207.95 295.85 206.82 297.19 206.02C298.56 205.22 300.08 204.82 301.74 204.82C303.4 204.82 304.81 205.17 306.02 205.88C307.23 206.59 308.13 207.48 308.72 208.55V205.13H311.87V223.88H308.72V220.39C308.1 221.49 307.18 222.4 305.95 223.13C304.74 223.84 303.33 224.19 301.71 224.19C300.09 224.19 298.54 223.78 297.19 222.96C295.84 222.14 294.78 220.99 294.01 219.5C293.24 218.01 292.85 216.33 292.85 214.43V214.44ZM308.73 214.47C308.73 213.06 308.44 211.82 307.87 210.77C307.3 209.72 306.52 208.92 305.54 208.38C304.58 207.81 303.52 207.52 302.36 207.52C301.2 207.52 300.14 207.79 299.18 208.34C298.22 208.89 297.46 209.69 296.89 210.74C296.32 211.79 296.03 213.02 296.03 214.44C296.03 215.86 296.32 217.13 296.89 218.2C297.46 219.25 298.22 220.06 299.18 220.63C300.14 221.18 301.2 221.45 302.36 221.45C303.52 221.45 304.59 221.18 305.54 220.63C306.52 220.06 307.3 219.25 307.87 218.2C308.44 217.13 308.73 215.88 308.73 214.47Z" fill="#222120"/>
<path d="M320.25 207.7V218.75C320.25 219.66 320.44 220.31 320.83 220.7C321.22 221.07 321.89 221.25 322.85 221.25H325.14V223.89H322.33C320.6 223.89 319.3 223.49 318.43 222.69C317.56 221.89 317.13 220.58 317.13 218.75V207.7H314.7V205.13H317.13V200.41H320.25V205.13H325.14V207.7H320.25Z" fill="#222120"/>
<path d="M329.84 202.09C329.25 202.09 328.74 201.89 328.33 201.47C327.92 201.06 327.71 200.56 327.71 199.96C327.71 199.36 327.91 198.86 328.33 198.45C328.74 198.04 329.24 197.83 329.84 197.83C330.44 197.83 330.89 198.04 331.28 198.45C331.69 198.86 331.9 199.36 331.9 199.96C331.9 200.56 331.69 201.06 331.28 201.47C330.89 201.88 330.41 202.09 329.84 202.09ZM331.35 205.14V223.89H328.24V205.14H331.35Z" fill="#222120"/>
<path d="M342.95 221.011L348.77 205.131H352.09L344.73 223.881H341.1L333.74 205.131H337.09L342.94 221.011H342.95Z" fill="#222120"/>
<path d="M371.58 213.79C371.58 214.38 371.54 215.01 371.48 215.67H356.49C356.6 217.52 357.23 218.97 358.37 220.02C359.53 221.05 360.94 221.56 362.58 221.56C363.93 221.56 365.04 221.25 365.93 220.64C366.84 220 367.48 219.16 367.85 218.11H371.2C370.7 219.91 369.69 221.38 368.19 222.52C366.68 223.64 364.81 224.2 362.58 224.2C360.8 224.2 359.2 223.8 357.79 223C356.4 222.2 355.3 221.07 354.5 219.61C353.7 218.13 353.3 216.42 353.3 214.48C353.3 212.54 353.69 210.84 354.46 209.38C355.23 207.92 356.32 206.8 357.71 206.03C359.12 205.23 360.74 204.83 362.57 204.83C364.4 204.83 365.92 205.22 367.29 205.99C368.66 206.77 369.71 207.84 370.44 209.21C371.19 210.56 371.57 212.09 371.57 213.8L371.58 213.79ZM368.36 213.14C368.36 211.95 368.1 210.94 367.57 210.09C367.05 209.22 366.33 208.57 365.41 208.14C364.52 207.68 363.53 207.46 362.43 207.46C360.86 207.46 359.51 207.96 358.39 208.97C357.29 209.97 356.67 211.36 356.51 213.14H368.35H368.36Z" fill="#222120"/>
</g>
<defs>
<clipPath id="clip0_631_1571">
<rect width="372" height="234" fill="white"/>
</clipPath>
</defs>
</svg>
