<svg width="366" height="166" viewBox="0 0 366 166" fill="none" xmlns="http://www.w3.org/2000/svg">
<g clip-path="url(#clip0_631_1381)">
<path d="M8.7793 158H23.0193L158.779 157.99V8H8.7793V158Z" fill="#222120"/>
<path fill-rule="evenodd" clip-rule="evenodd" d="M66.7793 8H158.779V100H166.779V0H66.7793V8Z" fill="#F7A823"/>
<path fill-rule="evenodd" clip-rule="evenodd" d="M23.0193 157.99H8.7793V66H0.779297V166H100.779V157.99H23.0193Z" fill="#F7A823"/>
<path d="M28.7793 55H73.8793V62.71H55.8393V110.04H46.8193V62.71H28.7793V55Z" fill="white"/>
<path d="M79.8594 55H113.669V62.71H88.8794V77.97H111.819V85.68H88.8794V102.33H114.979V110.04H79.8594V55Z" fill="white"/>
<path d="M119.869 55H128.889V110.04H119.869V55Z" fill="white"/>
<path d="M202.41 110.971V137.661H198.93V110.971H202.41Z" fill="#222120"/>
<path d="M217.81 116.289C220.36 116.289 222.43 117.069 224.01 118.629C225.59 120.159 226.38 122.379 226.38 125.289V137.659H222.93V125.789C222.93 123.699 222.41 122.099 221.36 120.999C220.31 119.879 218.88 119.319 217.07 119.319C215.26 119.319 213.76 119.889 212.67 121.039C211.6 122.189 211.06 123.859 211.06 126.059V137.659H207.57V116.679H211.06V119.669C211.75 118.599 212.68 117.769 213.85 117.179C215.05 116.589 216.36 116.299 217.79 116.299L217.81 116.289Z" fill="#222120"/>
<path d="M233.11 113.26C232.45 113.26 231.89 113.03 231.43 112.57C230.97 112.11 230.74 111.55 230.74 110.89C230.74 110.23 230.97 109.67 231.43 109.21C231.89 108.75 232.45 108.52 233.11 108.52C233.77 108.52 234.28 108.75 234.72 109.21C235.18 109.67 235.41 110.23 235.41 110.89C235.41 111.55 235.18 112.12 234.72 112.57C234.29 113.03 233.75 113.26 233.11 113.26ZM234.8 116.669V137.65H231.31V116.669H234.8Z" fill="#222120"/>
<path d="M244.219 119.541V131.911C244.219 132.931 244.44 133.661 244.87 134.091C245.3 134.501 246.06 134.701 247.13 134.701H249.7V137.651H246.56C244.62 137.651 243.17 137.201 242.2 136.311C241.23 135.421 240.74 133.951 240.74 131.911V119.541H238.02V116.671H240.74V111.391H244.219V116.671H249.7V119.541H244.219Z" fill="#222120"/>
<path d="M254.95 113.26C254.29 113.26 253.72 113.03 253.26 112.57C252.8 112.11 252.57 111.55 252.57 110.89C252.57 110.23 252.8 109.67 253.26 109.21C253.72 108.75 254.28 108.52 254.95 108.52C255.62 108.52 256.12 108.75 256.56 109.21C257.02 109.67 257.25 110.23 257.25 110.89C257.25 111.55 257.02 112.12 256.56 112.57C256.13 113.03 255.59 113.26 254.95 113.26ZM256.63 116.669V137.65H253.15V116.669H256.63Z" fill="#222120"/>
<path d="M260.5 127.09C260.5 124.95 260.93 123.07 261.8 121.46C262.67 119.83 263.85 118.56 265.36 117.67C266.89 116.78 268.59 116.33 270.45 116.33C272.31 116.33 273.88 116.72 275.24 117.52C276.59 118.31 277.6 119.31 278.26 120.51V116.68H281.78V137.66H278.26V133.75C277.57 134.98 276.54 136 275.16 136.81C273.81 137.6 272.22 138 270.41 138C268.6 138 266.86 137.54 265.36 136.62C263.85 135.7 262.67 134.41 261.8 132.75C260.93 131.09 260.5 129.2 260.5 127.08V127.09ZM278.27 127.13C278.27 125.55 277.95 124.17 277.31 122.99C276.67 121.82 275.8 120.92 274.71 120.31C273.64 119.67 272.45 119.35 271.15 119.35C269.85 119.35 268.66 119.66 267.59 120.27C266.52 120.88 265.66 121.78 265.02 122.95C264.38 124.12 264.06 125.5 264.06 127.09C264.06 128.68 264.38 130.1 265.02 131.3C265.66 132.47 266.51 133.38 267.59 134.02C268.66 134.63 269.85 134.94 271.15 134.94C272.45 134.94 273.64 134.63 274.71 134.02C275.81 133.38 276.67 132.48 277.31 131.3C277.95 130.1 278.27 128.71 278.27 127.13Z" fill="#222120"/>
<path d="M291.169 119.541V131.911C291.169 132.931 291.389 133.661 291.819 134.091C292.249 134.501 293.009 134.701 294.079 134.701H296.649V137.651H293.509C291.569 137.651 290.119 137.201 289.149 136.311C288.179 135.421 287.699 133.951 287.699 131.911V119.541H284.979V116.671H287.699V111.391H291.179V116.671H296.659V119.541H291.179H291.169Z" fill="#222120"/>
<path d="M301.899 113.26C301.239 113.26 300.679 113.03 300.219 112.57C299.759 112.11 299.529 111.55 299.529 110.89C299.529 110.23 299.759 109.67 300.219 109.21C300.679 108.75 301.239 108.52 301.899 108.52C302.559 108.52 303.069 108.75 303.509 109.21C303.969 109.67 304.199 110.23 304.199 110.89C304.199 111.55 303.969 112.12 303.509 112.57C303.079 113.03 302.539 113.26 301.899 113.26ZM303.579 116.669V137.65H300.099V116.669H303.579Z" fill="#222120"/>
<path d="M316.57 134.44L323.08 116.67H326.789L318.56 137.65H314.5L306.27 116.67H310.02L316.57 134.44Z" fill="#222120"/>
<path d="M348.599 126.36C348.599 127.02 348.559 127.73 348.479 128.47H331.709C331.839 130.54 332.539 132.16 333.819 133.33C335.119 134.48 336.689 135.05 338.529 135.05C340.039 135.05 341.289 134.71 342.279 134.02C343.299 133.3 344.019 132.36 344.419 131.19H348.169C347.609 133.21 346.489 134.85 344.799 136.13C343.119 137.38 341.019 138.01 338.519 138.01C336.529 138.01 334.739 137.56 333.159 136.67C331.599 135.78 330.379 134.51 329.479 132.88C328.589 131.22 328.139 129.31 328.139 127.14C328.139 124.97 328.569 123.07 329.439 121.43C330.309 119.8 331.519 118.55 333.079 117.68C334.659 116.79 336.479 116.34 338.519 116.34C340.559 116.34 342.269 116.77 343.809 117.64C345.339 118.51 346.509 119.71 347.329 121.24C348.169 122.75 348.589 124.46 348.589 126.37L348.599 126.36ZM344.999 125.63C344.999 124.3 344.709 123.17 344.119 122.22C343.529 121.25 342.729 120.52 341.709 120.04C340.709 119.53 339.599 119.27 338.379 119.27C336.619 119.27 335.109 119.83 333.859 120.95C332.629 122.07 331.929 123.63 331.749 125.62H344.999V125.63Z" fill="#222120"/>
<path d="M202.41 72.3195V81.2394H212.14V84.1094H202.41V93.2994H213.29V96.1694H198.93V69.4395H213.29V72.3094H202.41V72.3195Z" fill="#222120"/>
<path d="M228.009 74.8105C230.559 74.8105 232.629 75.5905 234.209 77.1505C235.789 78.6805 236.579 80.9005 236.579 83.8105V96.1805H233.129V84.3105C233.129 82.2205 232.609 80.6205 231.559 79.5205C230.509 78.4005 229.079 77.8405 227.269 77.8405C225.459 77.8405 223.959 78.4105 222.869 79.5605C221.799 80.7105 221.259 82.3805 221.259 84.5805V96.1805H217.779V75.2006H221.259V78.1906C221.949 77.1206 222.879 76.2906 224.049 75.7006C225.249 75.1106 226.559 74.8206 227.989 74.8206L228.009 74.8105Z" fill="#222120"/>
<path d="M240.219 85.6399C240.219 83.4699 240.649 81.5798 241.519 79.9698C242.389 78.3398 243.589 77.0698 245.119 76.1798C246.679 75.2898 248.449 74.8398 250.439 74.8398C253.019 74.8398 255.139 75.4698 256.799 76.7198C258.479 77.9698 259.599 79.7098 260.129 81.9298H256.379C256.019 80.6498 255.319 79.6498 254.269 78.8998C253.249 78.1598 251.969 77.7899 250.439 77.7899C248.449 77.7899 246.839 78.4798 245.619 79.8598C244.389 81.2098 243.779 83.1399 243.779 85.6399C243.779 88.1399 244.389 90.1198 245.619 91.4998C246.839 92.8798 248.449 93.5699 250.439 93.5699C251.969 93.5699 253.249 93.2098 254.269 92.4998C255.289 91.7898 255.989 90.7598 256.379 89.4398H260.129C259.569 91.5798 258.449 93.3098 256.759 94.6098C255.079 95.8898 252.969 96.5199 250.439 96.5199C248.449 96.5199 246.669 96.0698 245.119 95.1798C243.589 94.2898 242.389 93.0199 241.519 91.3899C240.649 89.7599 240.219 87.8398 240.219 85.6498V85.6399Z" fill="#222120"/>
<path d="M273.159 96.5196C271.189 96.5196 269.409 96.0696 267.799 95.1796C266.219 94.2896 264.969 93.0196 264.049 91.3896C263.159 89.7296 262.709 87.8196 262.709 85.6496C262.709 83.4796 263.169 81.6196 264.089 79.9796C265.029 78.3196 266.309 77.0596 267.919 76.1896C269.529 75.2996 271.329 74.8496 273.319 74.8496C275.309 74.8496 277.109 75.2996 278.719 76.1896C280.329 77.0596 281.589 78.3096 282.509 79.9396C283.449 81.5696 283.929 83.4796 283.929 85.6496C283.929 87.8196 283.439 89.7296 282.469 91.3896C281.529 93.0196 280.239 94.2896 278.599 95.1796C276.969 96.0696 275.149 96.5196 273.159 96.5196ZM273.159 93.4596C274.409 93.4596 275.589 93.1696 276.679 92.5796C277.779 91.9896 278.659 91.1096 279.319 89.9396C280.009 88.7696 280.349 87.3396 280.349 85.6496C280.349 83.9596 280.019 82.5396 279.349 81.3596C278.689 80.1896 277.819 79.3196 276.749 78.7596C275.679 78.1696 274.519 77.8796 273.269 77.8796C272.019 77.8796 270.819 78.1696 269.749 78.7596C268.699 79.3196 267.859 80.1896 267.219 81.3596C266.579 82.5296 266.259 83.9596 266.259 85.6496C266.259 87.3396 266.569 88.7996 267.179 89.9796C267.819 91.1496 268.659 92.0396 269.709 92.6196C270.759 93.1796 271.899 93.4596 273.159 93.4596Z" fill="#222120"/>
<path d="M286.439 85.5999C286.439 83.4599 286.869 81.5798 287.739 79.9698C288.609 78.3398 289.789 77.0698 291.299 76.1798C292.829 75.2898 294.539 74.8398 296.429 74.8398C298.059 74.8398 299.579 75.2198 300.989 75.9898C302.389 76.7298 303.469 77.7098 304.209 78.9398V67.8398H307.729V96.1798H304.209V92.2398C303.519 93.4898 302.499 94.5199 301.149 95.3399C299.799 96.1299 298.219 96.5299 296.399 96.5299C294.579 96.5299 292.839 96.0699 291.309 95.1499C289.799 94.2299 288.619 92.9398 287.749 91.2798C286.879 89.6198 286.449 87.7298 286.449 85.6098L286.439 85.5999ZM304.209 85.6399C304.209 84.0599 303.889 82.6798 303.249 81.4998C302.609 80.3298 301.739 79.4299 300.649 78.8199C299.579 78.1799 298.389 77.8598 297.089 77.8598C295.789 77.8598 294.599 78.1698 293.529 78.7798C292.459 79.3898 291.599 80.2898 290.959 81.4598C290.319 82.6298 289.999 84.0099 289.999 85.5999C289.999 87.1899 290.319 88.6098 290.959 89.8098C291.599 90.9798 292.449 91.8898 293.529 92.5298C294.599 93.1398 295.789 93.4499 297.089 93.4499C298.389 93.4499 299.579 93.1398 300.649 92.5298C301.749 91.8898 302.609 90.9898 303.249 89.8098C303.889 88.6098 304.209 87.2199 304.209 85.6399Z" fill="#222120"/>
<path d="M314.649 71.7791C313.989 71.7791 313.429 71.5491 312.969 71.0891C312.509 70.6291 312.279 70.0691 312.279 69.4091C312.279 68.7491 312.509 68.1791 312.969 67.7291C313.429 67.2691 313.989 67.0391 314.649 67.0391C315.309 67.0391 315.819 67.2691 316.259 67.7291C316.719 68.1891 316.949 68.7491 316.949 69.4091C316.949 70.0691 316.719 70.6391 316.259 71.0891C315.829 71.5491 315.289 71.7791 314.649 71.7791ZM316.329 75.1891V96.169H312.849V75.1891H316.329Z" fill="#222120"/>
<path d="M331.73 74.8105C334.28 74.8105 336.35 75.5905 337.93 77.1505C339.51 78.6805 340.3 80.9005 340.3 83.8105V96.1805H336.85V84.3105C336.85 82.2205 336.33 80.6205 335.28 79.5205C334.23 78.4005 332.8 77.8405 330.99 77.8405C329.18 77.8405 327.68 78.4105 326.59 79.5605C325.52 80.7105 324.98 82.3805 324.98 84.5805V96.1805H321.5V75.2006H324.98V78.1906C325.67 77.1206 326.6 76.2906 327.78 75.7006C328.98 75.1106 330.29 74.8206 331.72 74.8206L331.73 74.8105Z" fill="#222120"/>
<path d="M353.889 74.8398C355.699 74.8398 357.279 75.2398 358.639 76.0298C360.019 76.8198 361.039 77.8198 361.699 79.0198V75.1898H365.219V96.6299C365.219 98.5399 364.809 100.24 363.999 101.72C363.179 103.23 362.009 104.4 360.479 105.24C358.969 106.08 357.209 106.5 355.199 106.5C352.439 106.5 350.149 105.85 348.309 104.55C346.469 103.25 345.389 101.47 345.059 99.2298H348.509C348.889 100.51 349.679 101.53 350.879 102.29C352.079 103.08 353.519 103.48 355.209 103.48C357.119 103.48 358.679 102.88 359.879 101.68C361.109 100.48 361.719 98.7999 361.719 96.6299V92.2299C361.029 93.4599 360.009 94.4798 358.659 95.2898C357.309 96.1098 355.719 96.5199 353.909 96.5199C352.099 96.5199 350.349 96.0599 348.819 95.1399C347.309 94.2199 346.129 92.9298 345.259 91.2698C344.389 89.6098 343.959 87.7199 343.959 85.5999C343.959 83.4799 344.389 81.5798 345.259 79.9698C346.129 78.3398 347.309 77.0698 348.819 76.1798C350.349 75.2898 352.049 74.8398 353.909 74.8398H353.889ZM361.699 85.6399C361.699 84.0599 361.379 82.6798 360.739 81.4998C360.099 80.3298 359.229 79.4299 358.139 78.8199C357.069 78.1799 355.879 77.8598 354.579 77.8598C353.279 77.8598 352.089 78.1698 351.019 78.7798C349.949 79.3898 349.089 80.2898 348.449 81.4598C347.809 82.6298 347.489 84.0099 347.489 85.5999C347.489 87.1899 347.809 88.6098 348.449 89.8098C349.089 90.9798 349.939 91.8898 351.019 92.5298C352.089 93.1398 353.279 93.4499 354.579 93.4499C355.879 93.4499 357.069 93.1398 358.139 92.5298C359.239 91.8898 360.109 90.9898 360.739 89.8098C361.379 88.6098 361.699 87.2199 361.699 85.6399Z" fill="#222120"/>
<path d="M216.259 28V30.83H208.979V54.69H205.499V30.83H198.189V28H216.259Z" fill="#222120"/>
<path d="M236.81 43.3892C236.81 44.0492 236.77 44.7591 236.69 45.4991H219.92C220.05 47.5691 220.75 49.1891 222.03 50.3591C223.33 51.5091 224.9 52.0791 226.74 52.0791C228.25 52.0791 229.5 51.7391 230.49 51.0491C231.51 50.3391 232.23 49.3891 232.63 48.2191H236.38C235.82 50.2391 234.7 51.8791 233.01 53.1591C231.33 54.4091 229.23 55.0392 226.73 55.0392C224.74 55.0392 222.95 54.5892 221.37 53.6992C219.81 52.8092 218.59 51.5391 217.69 49.9091C216.8 48.2491 216.35 46.3392 216.35 44.1692C216.35 41.9992 216.78 40.0991 217.65 38.4591C218.52 36.8291 219.73 35.5791 221.29 34.7091C222.87 33.8191 224.68 33.3691 226.73 33.3691C228.78 33.3691 230.48 33.7992 232.01 34.6692C233.54 35.5392 234.72 36.7391 235.53 38.2691C236.37 39.7791 236.79 41.4891 236.79 43.3991L236.81 43.3892ZM233.21 42.6591C233.21 41.3291 232.92 40.1991 232.33 39.2491C231.74 38.2791 230.94 37.5492 229.92 37.0692C228.93 36.5592 227.81 36.2991 226.59 36.2991C224.83 36.2991 223.32 36.8592 222.07 37.9792C220.84 39.0992 220.14 40.6591 219.96 42.6491H233.21V42.6591Z" fill="#222120"/>
<path d="M251.59 54.6892L246.61 46.8792L241.82 54.6892H238.18L244.96 44.2692L238.18 33.6992H242.12L247.1 41.4692L251.85 33.6992H255.49L248.75 44.0792L255.53 54.6892H251.59Z" fill="#222120"/>
<path d="M264.569 36.5797V48.9497C264.569 49.9697 264.789 50.6997 265.219 51.1297C265.649 51.5397 266.409 51.7397 267.479 51.7397H270.049V54.6897H266.909C264.969 54.6897 263.509 54.2397 262.549 53.3497C261.579 52.4597 261.089 50.9897 261.089 48.9497V36.5797H258.369V33.7097H261.089V28.4297H264.569V33.7097H270.049V36.5797H264.569Z" fill="#222120"/>
</g>
<defs>
<clipPath id="clip0_631_1381">
<rect width="366" height="166" fill="white"/>
</clipPath>
</defs>
</svg>
